#Comment line ignore any data following # character 
#Hierarchical Translation and Rotation (.htr) file 
[Header]	
#Header keywords are followed by a single value 
FileType HTR		#Single word string
DataType HTRS		#Translation followed by rotation and scale data
FileVersion 1		#integer
NumSegments 84		#integer
NumFrames 2		#integer
DataFrameRate 30		#integer, data frame rate in this file
EulerRotationOrder ZYX
CalibrationUnits mm
RotationUnits Degrees
GlobalAxisofGravity Y
BoneLengthAxis Y
ScaleFactor 1.00
[SegmentNames&Hierarchy]
#CHILD	PARENT
MASTER GLOBAL
root MASTER
chest root
L_mid_tent01 root
R_mid_tent01 root
spine01 root
Bip01_Neck chest
L_humerus chest
R_humerus chest
weapon_bone chest
Bip01_Head Bip01_Neck
eye_left_bone Bip01_Head
eye_right_bone Bip01_Head
L_forearm L_humerus
L_front_hand L_forearm
L_weapon_bone L_forearm
L_front_hand01_01 L_front_hand
L_front_hand02_01 L_front_hand
L_front_hand03_01 L_front_hand
L_front_hand01_02 L_front_hand01_01
L_front_hand02_02 L_front_hand02_01
L_front_hand03_02 L_front_hand03_01
R_forearm R_humerus
R_front_hand R_forearm
R_weapon_bone R_forearm
R_front_hand01_01 R_front_hand
R_front_hand02_01 R_front_hand
R_front_hand03_01 R_front_hand
R_front_hand01_02 R_front_hand01_01
R_front_hand02_02 R_front_hand02_01
R_front_hand03_02 R_front_hand03_01
null_rope01_connect L_mid_tent01
Rope1_Seg01 null_rope01_connect
Rope1_Seg02 Rope1_Seg01
Rope1_Seg03 Rope1_Seg02
Rope1_Seg04 Rope1_Seg03
Rope1_Seg05 Rope1_Seg04
Rope1_Seg06 Rope1_Seg05
Rope1_Seg07 Rope1_Seg06
Rope1_Seg09 Rope1_Seg07
L_mid_hand01 Rope1_Seg09
L_mid_hand02 Rope1_Seg09
L_mid_hand03 Rope1_Seg09
null_rope02_connect R_mid_tent01
Rope2_Seg01 null_rope02_connect
Rope2_Seg02 Rope2_Seg01
Rope2_Seg03 Rope2_Seg02
Rope2_Seg04 Rope2_Seg03
Rope2_Seg05 Rope2_Seg04
Rope2_Seg06 Rope2_Seg05
Rope2_Seg07 Rope2_Seg06
Rope2_Seg09 Rope2_Seg07
R_mid_hand01 Rope2_Seg09
R_mid_hand02 Rope2_Seg09
R_mid_hand03 Rope2_Seg09
spine02 spine01
spine03 spine02
pelvis spine03
null_rope03_connect pelvis
null_rope04_connect pelvis
Rope3_Seg01 null_rope03_connect
Rope3_Seg02 Rope3_Seg01
Rope3_Seg03 Rope3_Seg02
Rope3_Seg04 Rope3_Seg03
Rope3_Seg05 Rope3_Seg04
Rope3_Seg06 Rope3_Seg05
Rope3_Seg07 Rope3_Seg06
Rope3_Seg08 Rope3_Seg07
Rope3_Seg09 Rope3_Seg08
R_rear_hand01 Rope3_Seg09
R_rear_hand02 Rope3_Seg09
R_rear_hand03 Rope3_Seg09
Rope4_Seg01 null_rope04_connect
Rope4_Seg02 Rope4_Seg01
Rope4_Seg03 Rope4_Seg02
Rope4_Seg04 Rope4_Seg03
Rope4_Seg05 Rope4_Seg04
Rope4_Seg06 Rope4_Seg05
Rope4_Seg07 Rope4_Seg06
Rope4_Seg08 Rope4_Seg07
Rope4_Seg09 Rope4_Seg08
L_rear_hand01 Rope4_Seg09
L_rear_hand02 Rope4_Seg09
L_rear_hand03 Rope4_Seg09
[BasePosition]
#SegmentName Tx, Ty, Tz, Rx, Ry, Rz, BoneLength
MASTER 0.000000 0.000000 0.000000 -90.000000 0.000000 0.000000 10.000000 
root 0.000000 0.000000 0.000000 0.000000 0.000000 0.000000 10.000000 
chest 0.000000 0.000000 0.000000 0.000000 0.000000 0.000000 10.000000 
L_mid_tent01 0.000000 0.000000 0.000000 0.000000 0.000000 0.000000 10.000000 
R_mid_tent01 0.000000 0.000000 0.000000 0.000000 0.000000 0.000000 10.000000 
spine01 0.000000 0.000000 0.000000 0.000000 0.000000 0.000000 10.000000 
Bip01_Neck 0.000000 0.000000 0.000000 0.000000 0.000000 0.000000 10.000000 
L_humerus 0.000000 0.000000 0.000000 0.000000 0.000000 0.000000 10.000000 
R_humerus 0.000000 0.000000 0.000000 0.000000 0.000000 0.000000 10.000000 
weapon_bone 0.000000 0.000000 0.000000 0.000000 0.000000 0.000000 10.000000 
Bip01_Head 0.000000 0.000000 0.000000 0.000000 0.000000 0.000000 10.000000 
eye_left_bone 0.000000 0.000000 0.000000 0.000000 0.000000 0.000000 10.000000 
eye_right_bone 0.000000 0.000000 0.000000 0.000000 0.000000 0.000000 10.000000 
L_forearm 0.000000 0.000000 0.000000 0.000000 0.000000 0.000000 10.000000 
L_front_hand 0.000000 0.000000 0.000000 0.000000 0.000000 0.000000 10.000000 
L_weapon_bone 0.000000 0.000000 0.000000 0.000000 0.000000 0.000000 10.000000 
L_front_hand01_01 0.000000 0.000000 0.000000 0.000000 0.000000 0.000000 10.000000 
L_front_hand02_01 0.000000 0.000000 0.000000 0.000000 0.000000 0.000000 10.000000 
L_front_hand03_01 0.000000 0.000000 0.000000 0.000000 0.000000 0.000000 10.000000 
L_front_hand01_02 0.000000 0.000000 0.000000 0.000000 0.000000 0.000000 10.000000 
L_front_hand02_02 0.000000 0.000000 0.000000 0.000000 0.000000 0.000000 10.000000 
L_front_hand03_02 0.000000 0.000000 0.000000 0.000000 0.000000 0.000000 10.000000 
R_forearm 0.000000 0.000000 0.000000 0.000000 0.000000 0.000000 10.000000 
R_front_hand 0.000000 0.000000 0.000000 0.000000 0.000000 0.000000 10.000000 
R_weapon_bone 0.000000 0.000000 0.000000 0.000000 0.000000 0.000000 10.000000 
R_front_hand01_01 0.000000 0.000000 0.000000 0.000000 0.000000 0.000000 10.000000 
R_front_hand02_01 0.000000 0.000000 0.000000 0.000000 0.000000 0.000000 10.000000 
R_front_hand03_01 0.000000 0.000000 0.000000 0.000000 0.000000 0.000000 10.000000 
R_front_hand01_02 0.000000 0.000000 0.000000 0.000000 0.000000 0.000000 10.000000 
R_front_hand02_02 0.000000 0.000000 0.000000 0.000000 0.000000 0.000000 10.000000 
R_front_hand03_02 0.000000 0.000000 0.000000 0.000000 0.000000 0.000000 10.000000 
null_rope01_connect 0.000000 0.000000 0.000000 0.000000 0.000000 0.000000 10.000000 
Rope1_Seg01 0.000000 0.000000 0.000000 0.000000 0.000000 0.000000 10.000000 
Rope1_Seg02 0.000000 0.000000 0.000000 0.000000 0.000000 0.000000 10.000000 
Rope1_Seg03 0.000000 0.000000 0.000000 0.000000 0.000000 0.000000 10.000000 
Rope1_Seg04 0.000000 0.000000 0.000000 0.000000 0.000000 0.000000 10.000000 
Rope1_Seg05 0.000000 0.000000 0.000000 0.000000 0.000000 0.000000 10.000000 
Rope1_Seg06 0.000000 0.000000 0.000000 0.000000 0.000000 0.000000 10.000000 
Rope1_Seg07 0.000000 0.000000 0.000000 0.000000 0.000000 0.000000 10.000000 
Rope1_Seg09 0.000000 0.000000 0.000000 0.000000 0.000000 0.000000 10.000000 
L_mid_hand01 0.000000 0.000000 0.000000 0.000000 0.000000 0.000000 10.000000 
L_mid_hand02 0.000000 0.000000 0.000000 0.000000 0.000000 0.000000 10.000000 
L_mid_hand03 0.000000 0.000000 0.000000 0.000000 0.000000 0.000000 10.000000 
null_rope02_connect 0.000000 0.000000 0.000000 0.000000 0.000000 0.000000 10.000000 
Rope2_Seg01 0.000000 0.000000 0.000000 0.000000 0.000000 0.000000 10.000000 
Rope2_Seg02 0.000000 0.000000 0.000000 0.000000 0.000000 0.000000 10.000000 
Rope2_Seg03 0.000000 0.000000 0.000000 0.000000 0.000000 0.000000 10.000000 
Rope2_Seg04 0.000000 0.000000 0.000000 0.000000 0.000000 0.000000 10.000000 
Rope2_Seg05 0.000000 0.000000 0.000000 0.000000 0.000000 0.000000 10.000000 
Rope2_Seg06 0.000000 0.000000 0.000000 0.000000 0.000000 0.000000 10.000000 
Rope2_Seg07 0.000000 0.000000 0.000000 0.000000 0.000000 0.000000 10.000000 
Rope2_Seg09 0.000000 0.000000 0.000000 0.000000 0.000000 0.000000 10.000000 
R_mid_hand01 0.000000 0.000000 0.000000 0.000000 0.000000 0.000000 10.000000 
R_mid_hand02 0.000000 0.000000 0.000000 0.000000 0.000000 0.000000 10.000000 
R_mid_hand03 0.000000 0.000000 0.000000 0.000000 0.000000 0.000000 10.000000 
spine02 0.000000 0.000000 0.000000 0.000000 0.000000 0.000000 10.000000 
spine03 0.000000 0.000000 0.000000 0.000000 0.000000 0.000000 10.000000 
pelvis 0.000000 0.000000 0.000000 0.000000 0.000000 0.000000 10.000000 
null_rope03_connect 0.000000 0.000000 0.000000 0.000000 0.000000 0.000000 10.000000 
null_rope04_connect 0.000000 0.000000 0.000000 0.000000 0.000000 0.000000 10.000000 
Rope3_Seg01 0.000000 0.000000 0.000000 0.000000 0.000000 0.000000 10.000000 
Rope3_Seg02 0.000000 0.000000 0.000000 0.000000 0.000000 0.000000 10.000000 
Rope3_Seg03 0.000000 0.000000 0.000000 0.000000 0.000000 0.000000 10.000000 
Rope3_Seg04 0.000000 0.000000 0.000000 0.000000 0.000000 0.000000 10.000000 
Rope3_Seg05 0.000000 0.000000 0.000000 0.000000 0.000000 0.000000 10.000000 
Rope3_Seg06 0.000000 0.000000 0.000000 0.000000 0.000000 0.000000 10.000000 
Rope3_Seg07 0.000000 0.000000 0.000000 0.000000 0.000000 0.000000 10.000000 
Rope3_Seg08 0.000000 0.000000 0.000000 0.000000 0.000000 0.000000 10.000000 
Rope3_Seg09 0.000000 0.000000 0.000000 0.000000 0.000000 0.000000 10.000000 
R_rear_hand01 0.000000 0.000000 0.000000 0.000000 0.000000 0.000000 10.000000 
R_rear_hand02 0.000000 0.000000 0.000000 0.000000 0.000000 0.000000 10.000000 
R_rear_hand03 0.000000 0.000000 0.000000 0.000000 0.000000 0.000000 10.000000 
Rope4_Seg01 0.000000 0.000000 0.000000 0.000000 0.000000 0.000000 10.000000 
Rope4_Seg02 0.000000 0.000000 0.000000 0.000000 0.000000 0.000000 10.000000 
Rope4_Seg03 0.000000 0.000000 0.000000 0.000000 0.000000 0.000000 10.000000 
Rope4_Seg04 0.000000 0.000000 0.000000 0.000000 0.000000 0.000000 10.000000 
Rope4_Seg05 0.000000 0.000000 0.000000 0.000000 0.000000 0.000000 10.000000 
Rope4_Seg06 0.000000 0.000000 0.000000 0.000000 0.000000 0.000000 10.000000 
Rope4_Seg07 0.000000 0.000000 0.000000 0.000000 0.000000 0.000000 10.000000 
Rope4_Seg08 0.000000 0.000000 0.000000 0.000000 0.000000 0.000000 10.000000 
Rope4_Seg09 0.000000 0.000000 0.000000 0.000000 0.000000 0.000000 10.000000 
L_rear_hand01 0.000000 0.000000 0.000000 0.000000 0.000000 0.000000 10.000000 
L_rear_hand02 0.000000 0.000000 0.000000 0.000000 0.000000 0.000000 10.000000 
L_rear_hand03 0.000000 0.000000 0.000000 0.000000 0.000000 0.000000 10.000000 
#Beginning of Data. Separated by tabs
#Fr	Tx	Ty	Tz	Rx	Ry	Rz	SF
[MASTER]
46 -354.768860 -1351.521606 0.062604 0.001660 0.001660 0.001660 1397.308716
47 -354.029144 -1408.411743 0.084624 0.001660 0.001660 0.001660 1452.225952
[root]
46 -16.502264 -62.822109 1305.536011 -63.893505 -42.878078 -106.369888 1307.150879
47 -16.502264 -62.822109 1290.808960 -63.910252 -42.879845 -106.376160 1292.442139
[chest]
46 -84.512650 -34.090519 0.000000 2.432697 -0.235871 -178.755127 91.129311
47 -84.512650 -34.090519 0.000000 1.949995 -0.121170 -179.662445 91.129311
[L_mid_tent01]
46 27.299471 22.177599 -249.918274 41.012669 53.642921 119.591904 252.381165
47 27.299471 22.177601 -249.918274 35.644043 53.371571 113.241943 252.381165
[R_mid_tent01]
46 23.228794 24.509907 226.238495 168.088776 -29.300303 69.938057 228.744751
47 23.228794 24.509907 226.238495 168.634552 -29.500189 68.826485 228.744751
[spine01]
46 -0.361383 -0.195265 0.000000 0.001845 0.001451 13.654368 0.410763
47 -0.361383 -0.195265 0.000000 0.001845 0.001451 13.654368 0.410763
[Bip01_Neck]
46 165.484543 71.581718 0.000119 176.643677 -1.657967 43.431911 180.302734
47 165.484543 71.581718 0.000119 176.643677 -1.657967 43.431911 180.302734
[L_humerus]
46 -13.983130 -135.272980 -120.471481 -174.819153 8.111033 -83.135513 181.680161
47 -13.983130 -135.272980 -120.471481 -175.316788 7.233792 -83.828392 181.680161
[R_humerus]
46 -13.983309 -135.273102 125.287651 179.795074 2.788954 -90.515450 184.909012
47 -13.983309 -135.273102 125.287651 -179.076981 3.572611 -92.384819 184.909012
[weapon_bone]
46 235.964890 -300.705902 0.000000 0.000000 -89.951546 -128.212341 382.234833
47 235.964890 -300.705902 0.000000 0.000000 -89.951546 -128.212341 382.234833
[Bip01_Head]
46 213.444427 185.715546 11.776991 -14.216677 -9.950174 0.955387 283.173950
47 213.444427 185.715561 11.776992 -14.996881 -10.230017 -2.620430 283.173950
[eye_left_bone]
46 -24.626970 125.451866 -64.772606 0.000000 -90.000000 -99.840431 143.318359
47 -24.626970 125.451866 -64.772606 0.000000 -90.000000 -99.840431 143.318359
[eye_right_bone]
46 -24.626970 125.451866 64.327362 0.000000 -89.965736 80.156380 143.117676
47 -24.626970 125.451866 64.327362 0.000000 -89.965736 80.156380 143.117676
[L_forearm]
46 322.776093 0.000000 -0.000119 0.000163 -0.002342 -97.988350 322.776093
47 322.776093 0.000000 -0.000119 0.000157 -0.002342 -97.663147 322.776093
[L_front_hand]
46 241.149185 -0.042021 -3.300071 149.893951 -1.837326 -27.423067 241.171753
47 241.149185 -0.042021 -3.300071 149.893951 -1.837326 -27.423067 241.171753
[L_weapon_bone]
46 156.183838 0.000000 0.000000 0.000014 0.000007 0.000001 156.183838
47 156.183838 0.000000 0.000000 0.000014 0.000007 0.000001 156.183838
[L_front_hand01_01]
46 86.095154 20.947098 -0.655860 -0.366594 -0.477154 75.385574 88.609184
47 86.095154 20.947098 -0.655860 -0.366594 -0.477154 75.385574 88.609184
[L_front_hand02_01]
46 86.935165 -11.437475 24.513514 154.399796 -59.883835 -61.369587 91.046425
47 86.935165 -11.437475 24.513514 154.399811 -59.883835 -61.369606 91.046425
[L_front_hand03_01]
46 86.637497 -14.123976 -20.424902 -153.913849 58.118130 -62.702866 90.126129
47 86.637497 -14.123976 -20.424902 -153.913849 58.118107 -62.702850 90.126129
[L_front_hand01_02]
46 71.020905 -0.000179 0.000030 0.001519 0.001790 -9.361428 71.020905
47 71.020905 -0.000179 0.000030 0.001082 0.002083 -35.090645 71.020905
[L_front_hand02_02]
46 71.020927 -0.000119 0.000060 0.001519 0.001790 -9.361428 71.020927
47 71.020927 -0.000119 0.000060 0.001082 0.002083 -35.090645 71.020927
[L_front_hand03_02]
46 71.020905 -0.000060 0.000060 0.001519 0.001790 -9.361428 71.020905
47 71.020905 -0.000060 0.000060 0.001082 0.002083 -35.090645 71.020905
[R_forearm]
46 322.776428 -0.000060 0.000030 0.128054 -0.168521 -38.148045 322.776428
47 322.776428 -0.000060 0.000030 0.127299 -0.169092 -37.635605 322.776428
[R_front_hand]
46 238.847015 -0.006795 2.210259 -8.879457 -10.642941 -26.315098 238.857239
47 238.847015 -0.006795 2.210259 -8.879457 -10.642941 -26.315098 238.857239
[R_weapon_bone]
46 155.664093 0.002503 -0.000030 0.003487 0.001180 -90.988930 155.664078
47 155.664093 0.002503 -0.000030 0.003487 0.001180 -90.988930 155.664078
[R_front_hand01_01]
46 87.624611 14.231146 22.918642 -154.633484 -59.950619 61.746037 91.683487
47 87.624611 14.231146 22.918642 -154.633499 -59.950619 61.746044 91.683487
[R_front_hand02_01]
46 89.356956 14.367283 -19.491137 154.602661 58.302864 63.744381 92.579636
47 89.356956 14.367283 -19.491137 154.602661 58.302849 63.744389 92.579636
[R_front_hand03_01]
46 87.286232 -22.307278 -0.143439 0.162155 -0.423168 -75.767921 90.091743
47 87.286232 -22.307278 -0.143439 0.162155 -0.423168 -75.767921 90.091743
[R_front_hand01_02]
46 71.020905 0.000060 0.000119 0.001828 0.001472 12.300869 71.020905
47 71.020905 0.000060 0.000119 0.002119 0.001009 39.069199 71.020905
[R_front_hand02_02]
46 71.020844 -0.000030 -0.000119 0.001828 0.001472 12.300869 71.020836
47 71.020844 -0.000030 -0.000119 0.002119 0.001009 39.069199 71.020836
[R_front_hand03_02]
46 71.020905 0.000000 0.000030 0.001828 0.001472 12.300869 71.020905
47 71.020905 0.000000 0.000030 0.002119 0.001009 39.069199 71.020905
[null_rope01_connect]
46 328.732483 0.000000 -0.000238 -106.593346 -35.477505 134.665100 328.732483
47 328.732483 0.000000 -0.000238 -104.609802 -37.467091 136.289551 328.732483
[Rope1_Seg01]
46 -0.000026 0.000014 0.000057 122.579361 26.055380 168.987137 0.000065
47 -0.000026 0.000014 0.000055 121.111862 22.918005 169.049927 0.000062
[Rope1_Seg02]
46 139.999863 -0.000179 0.000000 3.439533 -16.307198 2.378060 139.999863
47 139.999863 -0.000179 0.000000 5.189590 -17.788179 -1.246995 139.999863
[Rope1_Seg03]
46 139.999924 0.000060 -0.000060 0.164016 -25.314541 4.041025 139.999924
47 139.999924 0.000060 -0.000060 2.352756 -28.793943 -1.618729 139.999924
[Rope1_Seg04]
46 139.999924 -0.000060 -0.000119 -5.016289 -24.014769 1.808104 139.999924
47 139.999924 -0.000060 -0.000119 -3.794069 -25.299444 -2.768079 139.999924
[Rope1_Seg05]
46 139.999832 0.000119 -0.000060 -3.719511 -14.086279 10.921292 139.999832
47 139.999832 0.000119 -0.000060 -2.992182 -13.104797 9.772998 139.999832
[Rope1_Seg06]
46 139.999954 0.000119 -0.000060 0.514925 -11.937057 15.927125 139.999954
47 139.999954 0.000119 -0.000060 1.120542 -11.360961 16.610031 139.999954
[Rope1_Seg07]
46 139.999985 0.000060 0.000000 -2.490041 -7.764755 7.712633 139.999985
47 139.999985 0.000060 0.000000 -1.586224 -7.786644 8.058087 139.999985
[Rope1_Seg09]
46 121.602913 0.000119 -0.000089 -89.793175 -1.359789 0.847147 121.602913
47 121.602913 0.000119 -0.000089 -89.793175 -1.359789 0.847147 121.602913
[L_mid_hand01]
46 103.859421 1.038730 8.195221 130.544373 -67.584534 -38.866943 104.187431
47 103.859421 1.038730 8.195221 130.544373 -67.584534 -38.866943 104.187431
[L_mid_hand02]
46 105.572853 -4.139662 -10.864139 -168.923172 43.409309 -73.498886 106.211075
47 105.572853 -4.139662 -10.864139 -168.923172 43.409309 -73.498886 106.211075
[L_mid_hand03]
46 104.641464 17.579376 -3.913581 -6.012627 17.808174 74.893669 106.179977
47 104.641464 17.579376 -3.913581 -6.012627 17.808174 74.893669 106.179977
[null_rope02_connect]
46 328.732849 0.000179 -0.000119 -117.046715 51.847172 -11.210873 328.732849
47 328.732849 0.000179 -0.000119 -117.043274 51.869247 -12.192769 328.732849
[Rope2_Seg01]
46 0.000062 0.000057 0.000000 10.153463 -7.058059 -35.939281 0.000084
47 0.000063 0.000055 0.000000 4.460415 -9.709778 -32.171566 0.000083
[Rope2_Seg02]
46 139.999741 -0.000060 -0.000119 -49.207161 19.741222 9.682430 139.999756
47 139.999741 -0.000060 -0.000119 -31.244526 15.382530 8.134112 139.999756
[Rope2_Seg03]
46 140.000107 0.000030 0.000000 -50.967655 13.522252 63.289879 140.000107
47 140.000107 0.000030 0.000000 -54.463928 29.529619 62.496517 140.000107
[Rope2_Seg04]
46 139.999802 0.000000 -0.000060 -5.688481 -21.951851 23.023590 139.999802
47 139.999802 0.000000 -0.000060 -8.302626 -23.527485 29.332897 139.999802
[Rope2_Seg05]
46 139.999985 -0.000060 0.000119 -0.113879 -11.512737 8.152131 139.999985
47 139.999985 -0.000060 0.000119 -0.545009 -13.129994 7.168116 139.999985
[Rope2_Seg06]
46 139.999893 -0.000030 -0.000119 0.517670 -6.413117 4.679801 139.999893
47 139.999893 -0.000030 -0.000119 -0.172384 -8.795360 4.390963 139.999893
[Rope2_Seg07]
46 139.999893 0.000060 -0.000060 0.554243 -3.291486 2.642931 139.999893
47 139.999893 0.000060 -0.000060 0.357144 -4.172760 2.606896 139.999893
[Rope2_Seg09]
46 121.338966 0.000089 -0.000060 33.793236 -1.359788 -0.847141 121.338966
47 121.338966 0.000089 -0.000060 33.793236 -1.359788 -0.847141 121.338966
[R_mid_hand01]
46 104.680779 11.144459 -10.335981 -16.212065 45.237247 70.462852 105.778534
47 104.680779 11.144459 -10.335981 -16.212063 45.237240 70.462852 105.778534
[R_mid_hand02]
46 104.070427 2.443552 8.231699 49.067387 -67.749794 39.286469 104.424065
47 104.070427 2.443552 8.231699 49.067387 -67.749794 39.286469 104.424065
[R_mid_hand03]
46 106.028137 -11.221827 -5.996406 -177.101105 15.551026 -76.585571 106.788818
47 106.028137 -11.221827 -5.996406 -177.101105 15.551026 -76.585571 106.788818
[spine02]
46 129.756927 0.001550 0.000119 -1.023899 -3.926965 6.770993 129.756927
47 129.756927 0.001550 0.000119 -1.023899 -3.926965 6.770993 129.756927
[spine03]
46 78.613846 0.087372 -4.898873 1.040681 4.146420 4.212376 78.766380
47 78.613846 0.087372 -4.898873 1.040681 4.146420 4.212376 78.766380
[pelvis]
46 169.435242 0.051022 0.000000 0.019518 -0.190233 -10.721436 169.435257
47 169.435242 0.051022 0.000000 0.019518 -0.190233 -10.721436 169.435257
[null_rope03_connect]
46 -1.257226 -2.466202 137.391083 5.489721 -71.320213 116.264191 137.418976
47 -1.257226 -2.466202 137.391083 5.444400 -71.335724 116.310966 137.418976
[null_rope04_connect]
46 -1.259640 -2.480268 -137.844437 5.489721 -71.320213 116.264191 137.872513
47 -1.259640 -2.480268 -137.844437 5.444400 -71.335724 116.310966 137.872513
[Rope3_Seg01]
46 -0.000023 0.000162 -0.000095 -152.273087 -54.831547 -59.323040 0.000189
47 -0.000023 0.000167 -0.000097 -153.909714 -54.648148 -57.291134 0.000195
[Rope3_Seg02]
46 139.999924 -0.000119 0.000060 -22.953808 -1.116109 -40.245613 139.999924
47 139.999924 -0.000119 0.000060 -22.745556 -2.113272 -39.730225 139.999924
[Rope3_Seg03]
46 139.999924 -0.000119 0.000119 -46.121746 7.747736 -26.013536 139.999924
47 139.999924 -0.000119 0.000119 -50.880821 7.506045 -27.001081 139.999924
[Rope3_Seg04]
46 139.999924 0.000119 0.000000 -44.703327 39.050793 -12.940126 139.999924
47 139.999924 0.000119 0.000000 -45.026096 42.308506 -11.790731 139.999924
[Rope3_Seg05]
46 139.999924 -0.000238 0.000060 -2.932932 22.451527 11.815953 139.999924
47 139.999924 -0.000238 0.000060 -1.639958 22.309839 13.286815 139.999924
[Rope3_Seg06]
46 139.999893 -0.000119 -0.000060 0.048725 6.113932 3.570810 139.999893
47 139.999893 -0.000119 -0.000060 0.275809 5.938266 3.755660 139.999893
[Rope3_Seg07]
46 139.999771 0.000060 -0.000119 0.408481 3.437750 2.012989 139.999771
47 139.999771 0.000060 -0.000119 0.522023 3.311784 2.080095 139.999771
[Rope3_Seg08]
46 139.999985 -0.000060 0.000000 0.515084 1.930620 1.113415 139.999985
47 139.999985 -0.000060 0.000000 0.574201 1.855705 1.143702 139.999985
[Rope3_Seg09]
46 90.185997 -0.000179 -0.000060 89.793228 -1.359877 -0.847183 90.185997
47 90.185997 -0.000179 -0.000060 89.793228 -1.359877 -0.847183 90.185997
[R_rear_hand01]
46 103.366196 -6.073594 -10.757982 -177.714203 24.565960 -73.910950 104.101845
47 103.366196 -6.073594 -10.757982 -177.714203 24.565960 -73.910950 104.101845
[R_rear_hand02]
46 100.509819 12.039542 -7.992327 -12.874834 36.868492 72.167213 101.543350
47 100.509819 12.039542 -7.992327 -12.874834 36.868492 72.167213 101.543350
[R_rear_hand03]
46 101.539970 5.215704 5.435467 71.484581 -71.816628 21.513813 101.819031
47 101.539970 5.215704 5.435467 71.484627 -71.816643 21.513817 101.819031
[Rope4_Seg01]
46 0.000000 0.000000 0.000000 78.328400 -25.488705 -165.876633 0.000000
47 0.000000 0.000000 0.000000 81.551964 -27.389845 -165.476608 0.000000
[Rope4_Seg02]
46 139.999985 0.000060 0.000119 -118.449295 -23.813061 -23.433607 139.999985
47 139.999985 0.000060 0.000119 -131.566681 -25.974985 -20.780746 139.999985
[Rope4_Seg03]
46 139.999924 0.000000 -0.000238 -38.979549 42.514404 -13.986921 139.999924
47 139.999924 0.000000 -0.000238 -32.940388 44.419144 -7.848937 139.999924
[Rope4_Seg04]
46 139.999985 0.000000 0.000119 -0.028110 19.069504 7.082636 139.999985
47 139.999985 0.000000 0.000119 0.937524 19.978760 8.984114 139.999985
[Rope4_Seg05]
46 139.999802 -0.000060 -0.000119 0.122404 7.335544 3.042853 139.999802
47 139.999802 -0.000060 -0.000119 0.371080 8.771287 4.296937 139.999802
[Rope4_Seg06]
46 139.999924 0.000000 0.000060 0.116002 3.972628 1.584362 139.999924
47 139.999924 0.000000 0.000060 0.176265 4.461356 2.067612 139.999924
[Rope4_Seg07]
46 139.999802 0.000000 0.000000 0.142917 2.557641 1.009095 139.999802
47 139.999802 0.000000 0.000000 0.167036 2.819292 1.292072 139.999802
[Rope4_Seg08]
46 139.999924 0.000000 0.000119 -1.444434 1.537697 0.605545 139.999924
47 139.999924 0.000000 0.000119 -1.436385 1.683147 0.767081 139.999924
[Rope4_Seg09]
46 90.185791 0.000060 0.000060 -135.617828 2.228885 0.850567 90.185791
47 90.185791 0.000060 0.000060 -135.617828 2.228885 0.850567 90.185791
[L_rear_hand01]
46 101.696655 -8.392275 -7.654577 -12.874829 -36.868488 107.832764 102.329041
47 101.696655 -8.392275 -7.654577 -12.874829 -36.868488 107.832764 102.329041
[L_rear_hand02]
46 102.726799 -1.568258 5.773216 71.484581 71.816628 158.486160 102.900848
47 102.726799 -1.568258 5.773216 71.484581 71.816628 158.486160 102.900848
[L_rear_hand03]
46 104.552910 9.721220 -10.420293 -177.714203 -24.565960 -106.089035 105.519653
47 104.552910 9.721220 -10.420293 -177.714203 -24.565960 -106.089035 105.519653
